<svg width="32" height="32" viewBox="0 0 32 32" fill="none" xmlns="http://www.w3.org/2000/svg">
<path d="M27.6096 4.39047C27.089 3.86984 26.2449 3.86984 25.7243 4.39047L16 14.1147L6.27577 4.39047C5.75516 3.86984 4.91107 3.86984 4.39047 4.39047C3.86984 4.91107 3.86984 5.75516 4.39047 6.27577L14.1147 16L4.39049 25.7241C3.86987 26.2449 3.86987 27.0889 4.39049 27.6096C4.9111 28.1301 5.75519 28.1301 6.2758 27.6096L16 17.8853L25.7243 27.6096C26.2449 28.1301 27.089 28.1301 27.6096 27.6096C28.1301 27.0889 28.1301 26.2449 27.6096 25.7243L17.8853 16L27.6096 6.27577C28.1301 5.75516 28.1301 4.91107 27.6096 4.39047Z" fill="#F5F5F5"/>
</svg>
