<svg width="32" height="32" viewBox="0 0 32 32" fill="none" xmlns="http://www.w3.org/2000/svg">
<path fill-rule="evenodd" clip-rule="evenodd" d="M26.6667 6.66667C27.403 6.66667 28 7.26363 28 8C28 8.73637 27.403 9.33333 26.6667 9.33333H5.33333C4.59693 9.33333 4 8.73637 4 8C4 7.26363 4.59693 6.66667 5.33333 6.66667H26.6667ZM28 16C28 15.2636 27.403 14.6667 26.6667 14.6667H5.33333C4.59693 14.6667 4 15.2636 4 16C4 16.7364 4.59693 17.3333 5.33333 17.3333H26.6667C27.403 17.3333 28 16.7364 28 16ZM28 24C28 23.2636 27.403 22.6667 26.6667 22.6667H5.33333C4.59693 22.6667 4 23.2636 4 24C4 24.7364 4.59693 25.3333 5.33333 25.3333H26.6667C27.403 25.3333 28 24.7364 28 24Z" fill="white"/>
</svg>
