<svg width="150" height="150" viewBox="0 0 150 150" fill="none" xmlns="http://www.w3.org/2000/svg">
<g clip-path="url(#clip0_2_89)">
<path d="M107.295 22.6965C103.772 20.7832 99.3653 22.0873 97.4521 25.6098C95.5384 29.1319 96.8429 33.5385 100.365 35.4523C117.55 44.7876 128.226 62.7223 128.226 82.2581C128.226 111.607 104.349 135.484 75 135.484C45.6513 135.484 21.7742 111.607 21.7742 82.2581C21.7742 62.8074 32.3811 44.91 49.4555 35.5495C52.9708 33.6227 54.2579 29.2108 52.3311 25.696C50.4039 22.1811 45.9919 20.8935 42.4776 22.8203C20.7537 34.7298 7.25807 57.5052 7.25807 82.2581C7.25807 119.611 37.6471 150 75 150C112.353 150 142.742 119.611 142.742 82.2581C142.742 57.3968 129.159 34.574 107.295 22.6965Z" fill="#60DDEE" fill-opacity="0.5"/>
<path d="M75 62.9032C79.0084 62.9032 82.2581 59.6535 82.2581 55.6452V7.25806C82.2581 3.24968 79.0084 0 75 0C70.9916 0 67.7419 3.24968 67.7419 7.25806V55.6452C67.7419 59.6535 70.9916 62.9032 75 62.9032Z" fill="#60DDEE" fill-opacity="0.5"/>
</g>
<defs>
<clipPath id="clip0_2_89">
<rect width="150" height="150" fill="white"/>
</clipPath>
</defs>
</svg>
