<svg width="32" height="32" viewBox="0 0 32 32" fill="none" xmlns="http://www.w3.org/2000/svg">
<path d="M18.2178 29.0039L25.7838 24.6356C26.5915 24.1693 26.9946 23.9361 27.2882 23.61C27.5481 23.3213 27.7446 22.9813 27.8646 22.612C28 22.1955 28 21.73 28 20.8018V12.0526C28 11.1244 28 10.659 27.8646 10.2425C27.7446 9.87318 27.5481 9.53295 27.2882 9.24435C26.9958 8.91956 26.5937 8.68738 25.7929 8.2251L18.2165 3.85082C17.4088 3.3845 17.0058 3.15181 16.5764 3.06057C16.1966 2.97981 15.8038 2.97981 15.424 3.06057C14.9945 3.15183 14.5902 3.3845 13.7825 3.85082L6.21509 8.21988C5.40836 8.68564 5.0053 8.91834 4.71178 9.24435C4.4519 9.53295 4.25565 9.87318 4.13564 10.2425C4 10.66 4 11.1266 4 12.0592V20.7957C4 21.7282 4 22.1945 4.13564 22.612C4.25565 22.9813 4.4519 23.3213 4.71178 23.61C5.00548 23.9361 5.40883 24.1693 6.2165 24.6356L13.7825 29.0039C14.5902 29.4702 14.9945 29.703 15.424 29.7943C15.8038 29.8749 16.1966 29.8749 16.5764 29.7943C17.0058 29.703 17.4102 29.4702 18.2178 29.0039Z" stroke="white" stroke-width="2.5" stroke-linecap="round" stroke-linejoin="round"/>
<path d="M11.843 16.4273C11.843 18.723 13.7041 20.5842 16 20.5842C18.2959 20.5842 20.1569 18.723 20.1569 16.4273C20.1569 14.1314 18.2959 12.2703 16 12.2703C13.7041 12.2703 11.843 14.1314 11.843 16.4273Z" stroke="white" stroke-width="2.5" stroke-linecap="round" stroke-linejoin="round"/>
</svg>
